<svg version="1.1" id="Layer_1" xmlns="http://www.w3.org/2000/svg" xmlns:xlink="http://www.w3.org/1999/xlink" x="0px" y="0px"
	 width="100%" viewBox="0 0 400 452" enable-background="new 0 0 400 452" xml:space="preserve">
<path fill="#000000" opacity="1.000000" stroke="none" 
	d="
M217.000000,453.000000 
	C144.666672,453.000000 72.833351,453.000000 1.000019,453.000000 
	C1.000013,302.333374 1.000013,151.666718 1.000006,1.000060 
	C134.333298,1.000040 267.666595,1.000040 400.999908,1.000020 
	C400.999939,151.666611 400.999939,302.333221 400.999969,452.999908 
	C339.833344,453.000000 278.666656,453.000000 217.000000,453.000000 
M9.000044,298.500000 
	C9.000044,347.260895 9.000044,396.021759 9.000044,444.713348 
	C137.976212,444.713348 266.378235,444.713348 394.712952,444.713348 
	C394.712952,334.023865 394.712952,223.621353 394.712952,113.286804 
	C266.023590,113.286804 137.621567,113.286804 9.000036,113.286804 
	C9.000036,174.882278 9.000036,236.191132 9.000044,298.500000 
M214.500000,105.000122 
	C274.593170,105.000122 334.686371,105.000122 394.711609,105.000122 
	C394.711609,72.690163 394.711609,40.952477 394.711609,9.285660 
	C266.022583,9.285660 137.622177,9.285660 9.288300,9.285660 
	C9.288300,41.310013 9.288300,73.047691 9.288300,105.000122 
	C77.550980,105.000122 145.525497,105.000122 214.500000,105.000122 
z"/>
<path fill="#FFFFFF" opacity="1.000000" stroke="none" 
	d="
M9.000040,298.000000 
	C9.000036,236.191132 9.000036,174.882278 9.000036,113.286804 
	C137.621567,113.286804 266.023590,113.286804 394.712952,113.286804 
	C394.712952,223.621353 394.712952,334.023865 394.712952,444.713348 
	C266.378235,444.713348 137.976212,444.713348 9.000044,444.713348 
	C9.000044,396.021759 9.000044,347.260895 9.000040,298.000000 
M54.992054,223.819336 
	C54.625351,225.530182 54.258648,227.241013 53.133949,229.389160 
	C53.144863,246.925980 53.155777,264.462799 53.012146,282.798553 
	C53.636658,284.213196 54.261173,285.627869 54.991703,287.811096 
	C54.383358,292.540833 53.775017,297.270538 53.011795,302.926178 
	C53.063427,317.284027 53.115059,331.641846 53.012150,346.798553 
	C53.636677,348.213226 54.261204,349.627899 54.977554,351.874695 
	C54.318413,353.496033 53.151047,355.098663 53.090672,356.742004 
	C52.864475,362.898682 52.985428,369.068665 53.013294,375.233521 
	C53.018494,376.383759 52.790810,377.807922 53.356331,378.639069 
	C57.436970,384.636566 59.687527,392.166901 66.922165,395.588287 
	C71.005508,397.519318 75.199486,400.755371 79.353424,400.770874 
	C161.829590,401.078094 244.307175,401.001434 326.784485,400.987122 
	C328.099762,400.986877 329.765930,401.273712 330.673035,400.611328 
	C336.387390,396.438843 343.786530,394.488251 347.348969,387.422791 
	C349.536499,383.084167 353.019226,379.404785 353.016968,374.096832 
	C352.990479,311.947266 353.000946,249.797699 352.993744,187.648132 
	C352.993591,186.322754 353.367767,184.719452 352.773010,183.717072 
	C348.901459,177.191910 345.893890,169.834412 338.901733,165.876648 
	C335.207672,163.785706 331.007843,161.216217 327.028687,161.203232 
	C244.385651,160.933426 161.741501,160.999222 79.097580,161.007019 
	C77.940002,161.007126 76.509621,160.691971 75.668411,161.236893 
	C69.441864,165.270386 61.941399,167.766083 58.249290,174.968155 
	C56.389442,178.596085 53.470619,182.256744 53.242798,186.035965 
	C52.602757,196.653458 53.111191,207.340179 53.012135,218.799225 
	C53.638668,220.215469 54.265202,221.631699 54.992054,223.819336 
z"/>
<path fill="#FFFFFF" opacity="1.000000" stroke="none" 
	d="
M214.000000,105.000122 
	C145.525497,105.000122 77.550980,105.000122 9.288300,105.000122 
	C9.288300,73.047691 9.288300,41.310013 9.288300,9.285660 
	C137.622177,9.285660 266.022583,9.285660 394.711609,9.285660 
	C394.711609,40.952477 394.711609,72.690163 394.711609,105.000122 
	C334.686371,105.000122 274.593170,105.000122 214.000000,105.000122 
z"/>
<path fill="#000000" opacity="1.000000" stroke="none" 
	d="
M53.166698,217.999603 
	C53.111191,207.340179 52.602757,196.653458 53.242798,186.035965 
	C53.470619,182.256744 56.389442,178.596085 58.249290,174.968155 
	C61.941399,167.766083 69.441864,165.270386 75.668411,161.236893 
	C76.509621,160.691971 77.940002,161.007126 79.097580,161.007019 
	C161.741501,160.999222 244.385651,160.933426 327.028687,161.203232 
	C331.007843,161.216217 335.207672,163.785706 338.901733,165.876648 
	C345.893890,169.834412 348.901459,177.191910 352.773010,183.717072 
	C353.367767,184.719452 352.993591,186.322754 352.993744,187.648132 
	C353.000946,249.797699 352.990479,311.947266 353.016968,374.096832 
	C353.019226,379.404785 349.536499,383.084167 347.348969,387.422791 
	C343.786530,394.488251 336.387390,396.438843 330.673035,400.611328 
	C329.765930,401.273712 328.099762,400.986877 326.784485,400.987122 
	C244.307175,401.001434 161.829590,401.078094 79.353424,400.770874 
	C75.199486,400.755371 71.005508,397.519318 66.922165,395.588287 
	C59.687527,392.166901 57.436970,384.636566 53.356331,378.639069 
	C52.790810,377.807922 53.018494,376.383759 53.013294,375.233521 
	C52.985428,369.068665 52.864475,362.898682 53.090672,356.742004 
	C53.151047,355.098663 54.318413,353.496033 55.314434,351.451172 
	C57.378651,351.351715 59.105988,351.675812 60.910770,352.461304 
	C61.658798,358.725250 63.147110,364.581573 62.770145,370.315277 
	C62.392635,376.057343 65.799026,379.459381 68.609283,383.086121 
	C74.284630,390.410370 83.230484,392.611908 91.505440,392.738281 
	C130.148376,393.328400 168.813248,393.487793 207.455093,392.862457 
	C245.912308,392.240082 284.454681,395.667084 322.806610,390.824310 
	C327.097290,390.282532 331.470764,387.881775 335.128571,385.360443 
	C343.002228,379.933258 344.552429,370.791595 344.744659,362.494263 
	C345.408051,333.853882 345.483704,305.178192 344.863129,276.535858 
	C344.250061,248.241455 347.190521,219.901062 343.308868,191.607559 
	C342.570984,186.228943 340.212494,182.505585 337.374298,178.903992 
	C331.531616,171.489868 322.443726,169.285645 313.977631,169.236542 
	C242.507233,168.821991 171.033279,169.059769 99.560760,168.916443 
	C91.609512,168.900497 84.181580,170.434509 76.718925,172.917282 
	C69.698952,175.252777 65.602013,180.930084 63.389450,186.752289 
	C61.045868,192.919281 61.571018,200.206757 61.040531,207.020218 
	C60.756874,210.663422 60.888939,214.338989 60.478485,217.952179 
	C57.804619,217.936127 55.485661,217.967865 53.166698,217.999603 
z"/>
<path fill="#000000" opacity="1.000000" stroke="none" 
	d="
M53.166687,281.999634 
	C53.155777,264.462799 53.144863,246.925980 53.808472,229.372894 
	C56.220280,231.664703 56.113670,236.047653 60.910648,235.462921 
	C60.936512,250.950623 60.884930,265.975311 60.437466,281.000000 
	C57.749954,281.333221 55.458321,281.666412 53.166687,281.999634 
z"/>
<path fill="#000000" opacity="1.000000" stroke="none" 
	d="
M53.166687,345.999695 
	C53.115059,331.641846 53.063427,317.284027 53.437790,302.417786 
	C57.991253,298.870697 58.168213,304.740936 60.910767,305.462952 
	C60.936554,318.950653 60.884949,331.975311 60.437462,345.000000 
	C57.749950,345.333221 55.458321,345.666443 53.166687,345.999695 
z"/>
<path fill="#000000" opacity="1.000000" stroke="none" 
	d="
M60.833374,304.999939 
	C58.168213,304.740936 57.991253,298.870697 53.515232,301.954834 
	C53.775017,297.270538 54.383358,292.540833 55.318977,287.416016 
	C57.136505,287.694061 58.626762,288.367157 60.062595,289.418884 
	C60.283237,294.864990 60.558304,299.932465 60.833374,304.999939 
z"/>
<path fill="#000000" opacity="1.000000" stroke="none" 
	d="
M60.833202,234.999908 
	C56.113670,236.047653 56.220280,231.664703 54.187469,229.154236 
	C54.258648,227.241013 54.625351,225.530182 55.270100,223.294296 
	C58.525173,220.600983 58.730019,224.009644 60.062698,225.463058 
	C60.283379,228.923843 60.558289,231.961884 60.833202,234.999908 
z"/>
<path fill="#000000" opacity="1.000000" stroke="none" 
	d="
M60.117020,289.040253 
	C58.626762,288.367157 57.136505,287.694061 55.265968,287.031738 
	C54.261173,285.627869 53.636658,284.213196 53.089417,282.399078 
	C55.458321,281.666412 57.749954,281.333221 60.514626,281.424622 
	C60.697453,284.246216 60.407234,286.643250 60.117020,289.040253 
z"/>
<path fill="#000000" opacity="1.000000" stroke="none" 
	d="
M53.089417,346.399109 
	C55.458321,345.666443 57.749950,345.333221 60.514778,345.432373 
	C60.936428,347.909760 60.884876,349.954834 60.833324,351.999878 
	C59.105988,351.675812 57.378651,351.351715 55.268524,351.035095 
	C54.261204,349.627899 53.636677,348.213226 53.089417,346.399109 
z"/>
<path fill="#000000" opacity="1.000000" stroke="none" 
	d="
M60.116928,225.040298 
	C58.730019,224.009644 58.525173,220.600983 55.219940,222.908600 
	C54.265202,221.631699 53.638668,220.215469 53.089417,218.399414 
	C55.485661,217.967865 57.804619,217.936127 60.555664,218.366425 
	C60.697475,220.899063 60.407204,222.969681 60.116928,225.040298 
z"/>
<path fill="#FFFFFF" opacity="1.000000" stroke="none" 
	d="
M60.062698,225.463058 
	C60.407204,222.969681 60.697475,220.899063 60.910568,218.414200 
	C60.888939,214.338989 60.756874,210.663422 61.040531,207.020218 
	C61.571018,200.206757 61.045868,192.919281 63.389450,186.752289 
	C65.602013,180.930084 69.698952,175.252777 76.718925,172.917282 
	C84.181580,170.434509 91.609512,168.900497 99.560760,168.916443 
	C171.033279,169.059769 242.507233,168.821991 313.977631,169.236542 
	C322.443726,169.285645 331.531616,171.489868 337.374298,178.903992 
	C340.212494,182.505585 342.570984,186.228943 343.308868,191.607559 
	C347.190521,219.901062 344.250061,248.241455 344.863129,276.535858 
	C345.483704,305.178192 345.408051,333.853882 344.744659,362.494263 
	C344.552429,370.791595 343.002228,379.933258 335.128571,385.360443 
	C331.470764,387.881775 327.097290,390.282532 322.806610,390.824310 
	C284.454681,395.667084 245.912308,392.240082 207.455093,392.862457 
	C168.813248,393.487793 130.148376,393.328400 91.505440,392.738281 
	C83.230484,392.611908 74.284630,390.410370 68.609283,383.086121 
	C65.799026,379.459381 62.392635,376.057343 62.770145,370.315277 
	C63.147110,364.581573 61.658798,358.725250 60.910770,352.461273 
	C60.884876,349.954834 60.936428,347.909760 60.910660,345.432343 
	C60.884949,331.975311 60.936554,318.950653 60.910767,305.462952 
	C60.558304,299.932465 60.283237,294.864990 60.062592,289.418884 
	C60.407234,286.643250 60.697453,284.246216 60.910507,281.424591 
	C60.884930,265.975311 60.936512,250.950623 60.910648,235.462921 
	C60.558289,231.961884 60.283379,228.923843 60.062698,225.463058 
M264.426514,231.102859 
	C256.875122,224.445129 250.363266,216.693817 241.096268,211.905151 
	C232.999344,207.721100 224.485001,203.701187 215.801239,203.389603 
	C200.947891,202.856628 185.863831,200.995789 171.125320,206.729401 
	C163.123077,209.842484 155.323257,213.199493 148.960129,218.597824 
	C140.087448,226.125076 131.382614,234.059662 126.101929,244.925705 
	C121.363396,254.676163 116.522179,264.271271 116.952431,275.579834 
	C117.211823,282.397614 116.436470,289.294128 117.164879,296.043152 
	C117.841011,302.307800 119.068771,308.777405 121.526718,314.527039 
	C125.874245,324.696777 132.650772,333.329346 140.376617,341.409424 
	C146.066284,347.359985 152.125778,352.798187 159.306946,356.271240 
	C167.195602,360.086487 175.824326,364.132874 184.309296,364.564331 
	C199.140015,365.318512 214.243790,366.919617 228.970901,361.255707 
	C236.993607,358.170258 244.735245,354.749176 251.113632,349.334564 
	C259.988586,341.800629 268.919006,333.958496 273.891479,322.992920 
	C277.189941,315.718994 282.308197,308.271454 282.494537,300.798920 
	C282.851654,286.481781 285.460632,271.930420 279.396545,257.576477 
	C275.458557,248.255081 271.088013,239.557220 264.426514,231.102859 
M87.000099,302.499817 
	C87.000099,280.063934 87.000099,257.628052 87.000099,235.284576 
	C84.027756,235.284576 81.620667,235.284576 79.278564,235.284576 
	C79.278564,264.648315 79.278564,293.726685 79.278564,322.715240 
	C81.972939,322.715240 84.374786,322.715240 87.000076,322.715240 
	C87.000076,316.121948 87.000076,309.810760 87.000099,302.499817 
z"/>
<path fill="#EA4025" opacity="1.000000" stroke="none" 
	d="
M264.674316,231.381012 
	C271.088013,239.557220 275.458557,248.255081 279.396545,257.576477 
	C285.460632,271.930420 282.851654,286.481781 282.494537,300.798920 
	C282.308197,308.271454 277.189941,315.718994 273.891479,322.992920 
	C268.919006,333.958496 259.988586,341.800629 251.113632,349.334564 
	C244.735245,354.749176 236.993607,358.170258 228.970901,361.255707 
	C214.243790,366.919617 199.140015,365.318512 184.309296,364.564331 
	C175.824326,364.132874 167.195602,360.086487 159.306946,356.271240 
	C152.125778,352.798187 146.066284,347.359985 140.376617,341.409424 
	C132.650772,333.329346 125.874245,324.696777 121.526718,314.527039 
	C119.068771,308.777405 117.841011,302.307800 117.164879,296.043152 
	C116.436470,289.294128 117.211823,282.397614 116.952431,275.579834 
	C116.522179,264.271271 121.363396,254.676163 126.101929,244.925705 
	C131.382614,234.059662 140.087448,226.125076 148.960129,218.597824 
	C155.323257,213.199493 163.123077,209.842484 171.125320,206.729401 
	C185.863831,200.995789 200.947891,202.856628 215.801239,203.389603 
	C224.485001,203.701187 232.999344,207.721100 241.096268,211.905151 
	C250.363266,216.693817 256.875122,224.445129 264.674316,231.381012 
M226.215454,328.996460 
	C224.241150,326.367676 222.341293,323.678802 220.278412,321.121460 
	C214.346817,313.768219 208.350113,306.467438 202.377350,299.147400 
	C199.987473,296.218414 197.482529,293.375671 195.223282,290.349365 
	C189.798416,283.082520 184.569855,275.668304 179.098953,268.436981 
	C176.072342,264.436493 172.690262,260.706543 169.518204,256.814087 
	C166.726486,253.388336 163.851913,250.014801 161.287170,246.423096 
	C157.615707,241.281570 154.192947,235.962433 149.626282,229.177307 
	C143.566101,238.194321 137.818253,245.651260 133.332687,253.802795 
	C130.301895,259.310577 127.608101,265.722931 127.293373,271.860413 
	C126.579193,285.787292 125.119286,300.144012 133.011322,312.980042 
	C136.952332,319.389923 140.264313,326.405304 145.237259,331.901367 
	C150.356140,337.558655 156.599655,342.766632 163.344101,346.246613 
	C172.584946,351.014709 182.230652,355.172028 193.300079,355.176086 
	C206.452377,355.180908 219.492233,355.249329 231.350555,348.796783 
	C233.878143,347.421417 240.533493,347.521149 237.238892,340.492310 
	C240.703339,334.044861 230.344055,334.616486 231.561081,329.310150 
	C230.024200,329.242340 228.487320,329.174561 226.215454,328.996460 
M183.082703,256.325134 
	C187.180084,261.768768 191.144821,267.318878 195.407410,272.629913 
	C201.116516,279.743317 207.080750,286.651398 212.886108,293.688324 
	C215.591644,296.967865 218.249588,300.291595 220.807190,303.687103 
	C224.628265,308.760010 228.315125,313.933899 232.123871,319.016296 
	C232.861588,320.000671 234.069321,320.642548 234.765457,321.646790 
	C238.896362,327.605896 242.940475,333.625214 247.013779,339.624268 
	C247.787704,339.623474 248.561646,339.622650 249.335587,339.621826 
	C255.084503,331.303070 261.416412,323.314056 266.374908,314.548187 
	C269.613922,308.822052 271.812653,302.105713 272.749481,295.584656 
	C273.827240,288.082306 273.261261,280.293518 272.889832,272.654388 
	C272.702820,268.807922 272.084412,264.659424 270.397522,261.277832 
	C267.132751,254.733124 262.559906,248.841797 259.283966,242.301620 
	C254.613464,232.977264 246.220734,228.019043 237.918900,223.010651 
	C233.574295,220.389618 228.304306,219.322449 223.893707,216.785873 
	C218.292480,213.564560 212.464172,212.679184 206.221970,212.977158 
	C203.398575,213.111938 200.546310,212.800049 197.737045,213.040466 
	C191.379944,213.584503 184.993851,214.068085 178.716751,215.143631 
	C175.863464,215.632523 173.248917,217.486420 170.511795,218.688660 
	C166.754150,220.339157 162.982925,221.958786 158.641785,223.841309 
	C161.215042,227.005234 163.702179,230.011612 166.130859,233.064514 
	C168.395020,235.910568 170.648697,238.767746 172.814484,241.688629 
	C176.213867,246.273300 179.535507,250.915604 183.082703,256.325134 
z"/>
<path fill="#000000" opacity="1.000000" stroke="none" 
	d="
M87.000092,302.999695 
	C87.000076,309.810760 87.000076,316.121948 87.000076,322.715240 
	C84.374786,322.715240 81.972939,322.715240 79.278564,322.715240 
	C79.278564,293.726685 79.278564,264.648315 79.278564,235.284576 
	C81.620667,235.284576 84.027756,235.284576 87.000099,235.284576 
	C87.000099,257.628052 87.000099,280.063934 87.000092,302.999695 
z"/>
<path fill="#FFFFFF" opacity="1.000000" stroke="none" 
	d="
M182.986389,255.929321 
	C179.535507,250.915604 176.213867,246.273300 172.814484,241.688629 
	C170.648697,238.767746 168.395020,235.910568 166.130859,233.064514 
	C163.702179,230.011612 161.215042,227.005234 158.641785,223.841309 
	C162.982925,221.958786 166.754150,220.339157 170.511795,218.688660 
	C173.248917,217.486420 175.863464,215.632523 178.716751,215.143631 
	C184.993851,214.068085 191.379944,213.584503 197.737045,213.040466 
	C200.546310,212.800049 203.398575,213.111938 206.221970,212.977158 
	C212.464172,212.679184 218.292480,213.564560 223.893707,216.785873 
	C228.304306,219.322449 233.574295,220.389618 237.918900,223.010651 
	C246.220734,228.019043 254.613464,232.977264 259.283966,242.301620 
	C262.559906,248.841797 267.132751,254.733124 270.397522,261.277832 
	C272.084412,264.659424 272.702820,268.807922 272.889832,272.654388 
	C273.261261,280.293518 273.827240,288.082306 272.749481,295.584656 
	C271.812653,302.105713 269.613922,308.822052 266.374908,314.548187 
	C261.416412,323.314056 255.084503,331.303070 249.335587,339.621826 
	C248.561646,339.622650 247.787704,339.623474 247.013779,339.624268 
	C242.940475,333.625214 238.896362,327.605896 234.765457,321.646790 
	C234.069321,320.642548 232.861588,320.000671 232.123871,319.016296 
	C228.315125,313.933899 224.628265,308.760010 220.807190,303.687103 
	C218.249588,300.291595 215.591644,296.967865 212.886108,293.688324 
	C207.080750,286.651398 201.116516,279.743317 195.407410,272.629913 
	C191.144821,267.318878 187.180084,261.768768 182.986389,255.929321 
z"/>
<path fill="#FFFFFF" opacity="1.000000" stroke="none" 
	d="
M236.952911,341.109406 
	C240.533493,347.521149 233.878143,347.421417 231.350555,348.796783 
	C219.492233,355.249329 206.452377,355.180908 193.300079,355.176086 
	C182.230652,355.172028 172.584946,351.014709 163.344101,346.246613 
	C156.599655,342.766632 150.356140,337.558655 145.237259,331.901367 
	C140.264313,326.405304 136.952332,319.389923 133.011322,312.980042 
	C125.119286,300.144012 126.579193,285.787292 127.293373,271.860413 
	C127.608101,265.722931 130.301895,259.310577 133.332687,253.802795 
	C137.818253,245.651260 143.566101,238.194321 149.626282,229.177307 
	C154.192947,235.962433 157.615707,241.281570 161.287170,246.423096 
	C163.851913,250.014801 166.726486,253.388336 169.518204,256.814087 
	C172.690262,260.706543 176.072342,264.436493 179.098953,268.436981 
	C184.569855,275.668304 189.798416,283.082520 195.223282,290.349365 
	C197.482529,293.375671 199.987473,296.218414 202.377350,299.147400 
	C208.350113,306.467438 214.346817,313.768219 220.278412,321.121460 
	C222.341293,323.678802 224.241150,326.367676 226.617996,329.430176 
	C230.331329,333.612396 233.642120,337.360901 236.952911,341.109406 
z"/>
<path fill="#EA4025" opacity="1.000000" stroke="none" 
	d="
M237.095901,340.800842 
	C233.642120,337.360901 230.331329,333.612396 226.985489,329.485352 
	C228.487320,329.174561 230.024200,329.242340 231.561081,329.310150 
	C230.344055,334.616486 240.703339,334.044861 237.095901,340.800842 
z"/>
</svg>