<svg version="1.1" id="Layer_1" xmlns="http://www.w3.org/2000/svg" xmlns:xlink="http://www.w3.org/1999/xlink" x="0px" y="0px"
	 width="100%" viewBox="0 0 400 452" enable-background="new 0 0 400 452" xml:space="preserve">
<path fill="#000000" opacity="1.000000" stroke="none" 
	d="
M41.000004,453.000000 
	C27.670700,453.000000 14.341401,453.000000 1.009077,453.000000 
	C1.006051,302.382965 1.006051,151.765900 1.006051,1.074428 
	C134.243347,1.074428 267.486725,1.074428 400.865051,1.074428 
	C400.865051,151.666580 400.865051,302.333282 400.865051,453.000000 
	C367.916962,453.000000 334.927124,453.000000 301.468658,452.666687 
	C301.000000,451.888885 301.000000,451.444458 301.005005,450.652832 
	C301.531158,449.666229 301.963379,448.916626 302.591461,448.409668 
	C304.009705,447.264984 305.524719,446.240204 307.463318,445.089203 
	C336.854248,445.011780 365.782227,445.011780 394.791992,445.011780 
	C394.791992,334.125031 394.791992,223.751175 394.791992,113.334702 
	C266.096893,113.334702 137.610275,113.334702 9.292395,113.334702 
	C9.292395,224.043854 9.292395,334.417908 9.292395,445.166534 
	C17.388760,445.166534 25.194338,445.166534 33.049179,445.510590 
	C36.065628,447.569763 39.032818,449.284882 41.893173,451.259094 
	C41.524227,452.012115 41.262115,452.506042 41.000004,453.000000 
M128.500000,9.000147 
	C88.739136,9.000147 48.978279,9.000147 9.289594,9.000147 
	C9.289594,41.312065 9.289594,73.049706 9.289594,104.713112 
	C137.979797,104.713112 266.380096,104.713112 394.710510,104.713112 
	C394.710510,72.687553 394.710510,40.949886 394.710510,9.000134 
	C306.114014,9.000134 217.807007,9.000134 128.500000,9.000147 
z"/>
<path fill="#000000" opacity="1.000000" stroke="none" 
	d="
M296.000000,453.000000 
	C213.645767,453.000000 131.291550,453.000000 48.473877,452.623901 
	C48.673626,449.887390 49.336819,447.527008 50.463005,445.089233 
	C129.456879,445.007874 207.987747,445.003235 286.518616,445.006958 
	C287.678955,445.006989 288.839325,445.111053 290.009705,445.531952 
	C291.628357,446.785065 293.341858,448.544586 294.822235,448.366486 
	C297.360840,448.061096 298.671936,448.387177 298.645996,451.005005 
	C297.527985,451.673370 296.763977,452.336670 296.000000,453.000000 
z"/>
<path fill="#000000" opacity="1.000000" stroke="none" 
	d="
M50.000011,445.166626 
	C49.336819,447.527008 48.673626,449.887390 48.005219,452.623901 
	C47.250000,453.000000 46.500000,453.000000 45.321945,452.655487 
	C43.929256,451.873993 42.964630,451.436981 42.000004,451.000000 
	C39.032818,449.284882 36.065628,447.569763 33.494583,445.433289 
	C39.260483,445.063538 44.630249,445.115082 50.000011,445.166626 
z"/>
<path fill="#000000" opacity="1.000000" stroke="none" 
	d="
M296.416626,453.000000 
	C296.763977,452.336670 297.527985,451.673370 298.979309,451.005005 
	C300.111115,451.000000 300.555542,451.000000 301.000000,451.000000 
	C301.000000,451.444458 301.000000,451.888885 301.000000,452.666687 
	C299.611115,453.000000 298.222198,453.000000 296.416626,453.000000 
z"/>
<path fill="#000000" opacity="1.000000" stroke="none" 
	d="
M41.893173,451.259094 
	C42.964630,451.436981 43.929256,451.873993 44.946945,452.655487 
	C43.933331,453.000000 42.866661,453.000000 41.400002,453.000000 
	C41.262115,452.506042 41.524227,452.012115 41.893173,451.259094 
z"/>
<path fill="#FFFFFF" opacity="1.000000" stroke="none" 
	d="
M50.463005,445.089233 
	C44.630249,445.115082 39.260483,445.063538 33.445320,445.089233 
	C25.194338,445.166534 17.388760,445.166534 9.292395,445.166534 
	C9.292395,334.417908 9.292395,224.043854 9.292395,113.334702 
	C137.610275,113.334702 266.096893,113.334702 394.791992,113.334702 
	C394.791992,223.751175 394.791992,334.125031 394.791992,445.011780 
	C365.782227,445.011780 336.854248,445.011780 307.036285,445.011902 
	C300.764099,445.063507 295.381866,445.115021 289.999664,445.166565 
	C288.839325,445.111053 287.678955,445.006989 286.518616,445.006958 
	C207.987747,445.003235 129.456879,445.007874 50.463005,445.089233 
M351.000061,208.500000 
	C351.000031,200.666977 351.008362,192.833954 350.990814,185.000961 
	C350.988220,183.845245 351.271118,182.431213 350.729126,181.575516 
	C346.756348,175.303085 344.139771,167.833344 336.989044,164.190231 
	C332.950073,162.132492 328.593201,159.233246 324.370544,159.218155 
	C242.040115,158.924286 159.708344,158.998840 77.376839,159.010452 
	C76.057487,159.010651 74.419701,158.692429 73.470642,159.328613 
	C67.445244,163.367432 59.901840,165.563553 56.472214,172.846146 
	C54.611237,176.797791 51.255413,180.774796 51.234295,184.754486 
	C50.900864,247.584656 50.998508,310.417114 51.012505,373.249054 
	C51.012760,374.398834 50.796955,375.820831 51.362228,376.654663 
	C55.434483,382.661713 57.706219,390.197876 64.942200,393.594116 
	C69.169067,395.578064 73.555412,398.754974 77.879906,398.771301 
	C160.043579,399.081360 242.208725,399.001801 324.373566,398.985718 
	C325.853760,398.985443 327.708893,399.303192 328.751801,398.568237 
	C334.539581,394.489624 341.890350,392.473663 345.427185,385.361481 
	C347.592468,381.007294 351.015472,377.280823 351.013367,371.996399 
	C350.991577,317.830933 351.000061,263.665466 351.000061,208.500000 
z"/>
<path fill="#FFFFFF" opacity="1.000000" stroke="none" 
	d="
M129.000000,9.000140 
	C217.807007,9.000134 306.114014,9.000134 394.710510,9.000134 
	C394.710510,40.949886 394.710510,72.687553 394.710510,104.713112 
	C266.380096,104.713112 137.979797,104.713112 9.289594,104.713112 
	C9.289594,73.049706 9.289594,41.312065 9.289594,9.000147 
	C48.978279,9.000147 88.739136,9.000147 129.000000,9.000140 
z"/>
<path fill="#000000" opacity="1.000000" stroke="none" 
	d="
M290.009705,445.531921 
	C295.381866,445.115021 300.764099,445.063507 306.573334,445.089294 
	C305.524719,446.240204 304.009705,447.264984 302.591461,448.409668 
	C301.963379,448.916626 301.531158,449.666229 301.005005,450.652832 
	C300.555542,451.000000 300.111115,451.000000 299.333313,451.000000 
	C298.671936,448.387177 297.360840,448.061096 294.822235,448.366486 
	C293.341858,448.544586 291.628357,446.785065 290.009705,445.531921 
z"/>
<path fill="#000000" opacity="1.000000" stroke="none" 
	d="
M351.000061,209.000000 
	C351.000061,263.665466 350.991577,317.830933 351.013367,371.996399 
	C351.015472,377.280823 347.592468,381.007294 345.427185,385.361481 
	C341.890350,392.473663 334.539581,394.489624 328.751801,398.568237 
	C327.708893,399.303192 325.853760,398.985443 324.373566,398.985718 
	C242.208725,399.001801 160.043579,399.081360 77.879906,398.771301 
	C73.555412,398.754974 69.169067,395.578064 64.942200,393.594116 
	C57.706219,390.197876 55.434483,382.661713 51.362228,376.654663 
	C50.796955,375.820831 51.012760,374.398834 51.012505,373.249054 
	C50.998508,310.417114 50.900864,247.584656 51.234295,184.754486 
	C51.255413,180.774796 54.611237,176.797791 56.472214,172.846146 
	C59.901840,165.563553 67.445244,163.367432 73.470642,159.328613 
	C74.419701,158.692429 76.057487,159.010651 77.376839,159.010452 
	C159.708344,158.998840 242.040115,158.924286 324.370544,159.218155 
	C328.593201,159.233246 332.950073,162.132492 336.989044,164.190231 
	C344.139771,167.833344 346.756348,175.303085 350.729126,181.575516 
	C351.271118,182.431213 350.988220,183.845245 350.990814,185.000961 
	C351.008362,192.833954 351.000031,200.666977 351.000061,209.000000 
M235.500000,167.000031 
	C209.677551,167.000061 183.844131,166.530136 158.035751,167.132767 
	C132.407867,167.731155 106.649490,164.360870 81.176971,169.146225 
	C76.858955,169.957428 72.515091,172.132095 68.858826,174.655731 
	C60.988838,180.087723 59.442825,189.221573 59.252544,197.525253 
	C58.596260,226.164841 58.515591,254.839203 59.136940,283.480347 
	C59.750744,311.773621 56.808582,340.112732 60.689877,368.405457 
	C61.428413,373.789032 63.823051,377.475769 66.631615,381.108154 
	C72.308105,388.449829 81.273903,390.606842 89.536415,390.734650 
	C128.177582,391.332275 166.841019,391.487457 205.481308,390.862610 
	C243.936966,390.240753 282.477844,393.666779 320.828064,388.823425 
	C325.116394,388.281830 329.484894,385.867950 333.141174,383.344360 
	C341.011383,377.912292 342.557159,368.778381 342.747437,360.474426 
	C343.403625,331.834869 343.484283,303.160492 342.863068,274.519348 
	C342.249359,246.226105 345.191071,217.887024 341.310089,189.594330 
	C340.571625,184.210663 338.176758,180.524017 335.368378,176.891785 
	C329.692108,169.550385 320.744141,167.510239 312.460205,167.268311 
	C287.159088,166.529327 261.822693,167.000031 235.500000,167.000031 
z"/>
<path fill="#FFFFFF" opacity="1.000000" stroke="none" 
	d="
M236.000000,167.000031 
	C261.822693,167.000031 287.159088,166.529327 312.460205,167.268311 
	C320.744141,167.510239 329.692108,169.550385 335.368378,176.891785 
	C338.176758,180.524017 340.571625,184.210663 341.310089,189.594330 
	C345.191071,217.887024 342.249359,246.226105 342.863068,274.519348 
	C343.484283,303.160492 343.403625,331.834869 342.747437,360.474426 
	C342.557159,368.778381 341.011383,377.912292 333.141174,383.344360 
	C329.484894,385.867950 325.116394,388.281830 320.828064,388.823425 
	C282.477844,393.666779 243.936966,390.240753 205.481308,390.862610 
	C166.841019,391.487457 128.177582,391.332275 89.536415,390.734650 
	C81.273903,390.606842 72.308105,388.449829 66.631615,381.108154 
	C63.823051,377.475769 61.428413,373.789032 60.689877,368.405457 
	C56.808582,340.112732 59.750744,311.773621 59.136940,283.480347 
	C58.515591,254.839203 58.596260,226.164841 59.252544,197.525253 
	C59.442825,189.221573 60.988838,180.087723 68.858826,174.655731 
	C72.515091,172.132095 76.858955,169.957428 81.176971,169.146225 
	C106.649490,164.360870 132.407867,167.731155 158.035751,167.132767 
	C183.844131,166.530136 209.677551,167.000061 236.000000,167.000031 
M84.999931,299.499878 
	C84.999931,277.397247 84.999931,255.294617 84.999931,233.284515 
	C82.025078,233.284515 79.620262,233.284515 77.278595,233.284515 
	C77.278595,262.648285 77.278595,291.726715 77.278595,320.715332 
	C79.972282,320.715332 82.379341,320.715332 84.999931,320.715332 
	C84.999931,313.788239 84.999931,307.144012 84.999931,299.499878 
z"/>
<path fill="#000000" opacity="1.000000" stroke="none" 
	d="
M84.999931,299.999847 
	C84.999931,307.144012 84.999931,313.788239 84.999931,320.715332 
	C82.379341,320.715332 79.972282,320.715332 77.278595,320.715332 
	C77.278595,291.726715 77.278595,262.648285 77.278595,233.284515 
	C79.620262,233.284515 82.025078,233.284515 84.999931,233.284515 
	C84.999931,255.294617 84.999931,277.397247 84.999931,299.999847 
z"/>
</svg>