<svg version="1.1" id="Layer_1" xmlns="http://www.w3.org/2000/svg" xmlns:xlink="http://www.w3.org/1999/xlink" x="0px" y="0px"
	 width="100%" viewBox="0 0 400 452" enable-background="new 0 0 400 452" xml:space="preserve">
<path fill="#000000" opacity="1.000000" stroke="none" 
	d="
M401.000000,45.000000 
	C401.000000,84.687561 401.000000,124.375122 400.659241,164.495941 
	C398.601196,163.619507 396.883881,162.309784 395.089111,160.537048 
	C395.011688,144.475021 395.011688,128.876007 395.011688,113.202423 
	C266.121979,113.202423 137.755173,113.202423 9.334053,113.202423 
	C9.334053,223.895355 9.334053,334.385406 9.334053,444.719177 
	C138.035568,444.719177 266.402679,444.719177 394.999939,444.719177 
	C394.999939,442.630951 394.916107,440.817017 395.016602,439.013336 
	C395.259186,434.659943 395.587891,430.311340 396.224213,426.012329 
	C398.044373,427.042572 399.522186,428.021301 401.000000,429.000000 
	C401.000000,436.997345 401.000000,444.994659 401.000000,452.994019 
	C267.713745,452.996002 134.427521,452.996002 1.070636,452.996002 
	C1.070636,302.430664 1.070636,151.861267 1.070636,1.145937 
	C134.333221,1.145937 267.666595,1.145937 401.000000,1.145937 
	C401.000000,12.737350 401.000000,24.400017 400.669067,36.484848 
	C398.614288,35.604671 396.890411,34.302330 395.089111,32.537018 
	C395.011688,24.472073 395.011688,16.870102 395.011688,9.197170 
	C266.121094,9.197170 137.760239,9.197170 9.361717,9.197170 
	C9.361717,41.241386 9.361717,73.087013 9.361717,104.700226 
	C138.084885,104.700226 266.446014,104.700226 395.166656,104.700226 
	C395.166656,83.600716 395.166656,62.800400 395.517456,42.007889 
	C397.578827,43.010468 399.289429,44.005234 401.000000,45.000000 
z"/>
<path fill="#000000" opacity="1.000000" stroke="none" 
	d="
M401.000000,299.000000 
	C401.000000,339.687561 401.000000,380.375122 400.659271,421.495972 
	C398.601257,420.619507 396.883972,419.309784 395.089203,417.537048 
	C395.007843,379.604736 394.984039,342.135376 395.049927,304.666199 
	C395.053833,302.443207 395.777802,300.221497 396.523804,298.005035 
	C398.253937,298.340607 399.626953,298.670319 401.000000,299.000000 
z"/>
<path fill="#000000" opacity="1.000000" stroke="none" 
	d="
M401.000000,171.000000 
	C401.000000,211.687561 401.000000,252.375122 400.659302,293.495941 
	C398.601257,292.619446 396.883972,291.309723 395.089233,289.536987 
	C395.007904,268.608215 395.002777,248.142426 395.000458,227.676636 
	C394.998566,211.190704 394.960175,194.704559 395.039520,178.219009 
	C395.052643,175.490707 395.586945,172.764923 396.258179,170.030731 
	C398.090607,170.348984 399.545319,170.674484 401.000000,171.000000 
z"/>
<path fill="#000000" opacity="1.000000" stroke="none" 
	d="
M401.000000,44.555836 
	C399.289429,44.005234 397.578827,43.010468 395.440125,41.563217 
	C395.063538,38.407158 395.115051,35.703579 395.166565,32.999992 
	C396.890411,34.302330 398.614288,35.604671 400.669067,36.953506 
	C401.000000,39.370556 401.000000,41.741116 401.000000,44.555836 
z"/>
<path fill="#000000" opacity="1.000000" stroke="none" 
	d="
M401.000000,170.571533 
	C399.545319,170.674484 398.090607,170.348984 395.889343,169.824966 
	C395.150696,166.750992 395.158630,163.875534 395.166565,161.000061 
	C396.883881,162.309784 398.601196,163.619507 400.659241,164.964600 
	C401.000000,166.714355 401.000000,168.428711 401.000000,170.571533 
z"/>
<path fill="#000000" opacity="1.000000" stroke="none" 
	d="
M395.166626,418.000061 
	C396.883972,419.309784 398.601257,420.619507 400.659271,421.964600 
	C401.000000,424.041656 401.000000,426.083344 401.000000,428.562500 
	C399.522186,428.021301 398.044373,427.042572 396.134674,425.619019 
	C395.524078,422.782776 395.345367,420.391418 395.166626,418.000061 
z"/>
<path fill="#000000" opacity="1.000000" stroke="none" 
	d="
M395.166656,289.999969 
	C396.883972,291.309723 398.601257,292.619446 400.659302,293.964600 
	C401.000000,295.388885 401.000000,296.777802 401.000000,298.583374 
	C399.626953,298.670319 398.253937,298.340607 396.342590,297.633789 
	C395.591736,294.837799 395.379181,292.418884 395.166656,289.999969 
z"/>
<path fill="#FFFFFF" opacity="1.000000" stroke="none" 
	d="
M395.089233,289.536987 
	C395.379181,292.418884 395.591736,294.837799 395.985474,297.627930 
	C395.777802,300.221497 395.053833,302.443207 395.049927,304.666199 
	C394.984039,342.135376 395.007843,379.604736 395.089172,417.537048 
	C395.345367,420.391418 395.524078,422.782776 395.792328,425.567444 
	C395.587891,430.311340 395.259186,434.659943 395.016602,439.013336 
	C394.916107,440.817017 394.999939,442.630951 394.999939,444.719177 
	C266.402679,444.719177 138.035568,444.719177 9.334053,444.719177 
	C9.334053,334.385406 9.334053,223.895355 9.334053,113.202423 
	C137.755173,113.202423 266.121979,113.202423 395.011688,113.202423 
	C395.011688,128.876007 395.011688,144.475021 395.089111,160.537048 
	C395.158630,163.875534 395.150696,166.750992 395.511597,169.832214 
	C395.586945,172.764923 395.052643,175.490707 395.039520,178.219009 
	C394.960175,194.704559 394.998566,211.190704 395.000458,227.676636 
	C395.002777,248.142426 395.007904,268.608215 395.089233,289.536987 
M49.029106,175.942764 
	C49.019405,239.418564 49.301090,302.897247 48.675888,366.366974 
	C48.585403,375.552612 53.198929,381.067902 58.071270,386.748413 
	C60.328194,389.379730 65.325974,389.667999 69.088928,390.996521 
	C71.050308,391.688995 73.027855,392.914154 74.999260,392.916473 
	C157.634644,393.013885 240.270172,393.000793 322.905670,392.993042 
	C324.063049,392.992920 325.492859,393.306915 326.334320,392.762085 
	C332.561096,388.730316 340.107178,386.256378 343.732300,379.022736 
	C345.692657,375.111023 348.755127,371.008484 348.775757,366.979004 
	C349.096313,304.337616 349.000977,241.694077 348.992157,179.051041 
	C348.992004,177.894653 349.291168,176.470932 348.746857,175.624619 
	C344.733887,169.384766 342.267334,161.798080 335.004395,158.245987 
	C330.799286,156.189392 326.308258,153.237534 321.936432,153.221130 
	C241.467911,152.918961 160.997955,153.005905 80.528297,152.991898 
	C71.042030,152.990250 63.621437,155.525253 58.053886,164.537323 
	C55.932995,167.970352 51.042435,170.436798 49.029106,175.942764 
z"/>
<path fill="#FFFFFF" opacity="1.000000" stroke="none" 
	d="
M395.089111,32.537018 
	C395.115051,35.703579 395.063538,38.407158 395.089355,41.555412 
	C395.166656,62.800400 395.166656,83.600716 395.166656,104.700226 
	C266.446014,104.700226 138.084885,104.700226 9.361717,104.700226 
	C9.361717,73.087013 9.361717,41.241386 9.361717,9.197170 
	C137.760239,9.197170 266.121094,9.197170 395.011688,9.197170 
	C395.011688,16.870102 395.011688,24.472073 395.089111,32.537018 
z"/>
<path fill="#000000" opacity="1.000000" stroke="none" 
	d="
M49.223267,175.532257 
	C51.042435,170.436798 55.932995,167.970352 58.053886,164.537323 
	C63.621437,155.525253 71.042030,152.990250 80.528297,152.991898 
	C160.997955,153.005905 241.467911,152.918961 321.936432,153.221130 
	C326.308258,153.237534 330.799286,156.189392 335.004395,158.245987 
	C342.267334,161.798080 344.733887,169.384766 348.746857,175.624619 
	C349.291168,176.470932 348.992004,177.894653 348.992157,179.051041 
	C349.000977,241.694077 349.096313,304.337616 348.775757,366.979004 
	C348.755127,371.008484 345.692657,375.111023 343.732300,379.022736 
	C340.107178,386.256378 332.561096,388.730316 326.334320,392.762085 
	C325.492859,393.306915 324.063049,392.992920 322.905670,392.993042 
	C240.270172,393.000793 157.634644,393.013885 74.999260,392.916473 
	C73.027855,392.914154 71.050308,391.688995 69.088928,390.996521 
	C65.325974,389.667999 60.328194,389.379730 58.071270,386.748413 
	C53.198929,381.067902 48.585403,375.552612 48.675888,366.366974 
	C49.301090,302.897247 49.019405,239.418564 49.223267,175.532257 
M162.500000,385.000031 
	C188.657898,385.000031 214.826340,385.463379 240.970734,384.869202 
	C266.942444,384.278961 293.042511,387.608612 318.860352,382.848541 
	C323.191437,382.049988 327.511017,379.781067 331.213104,377.272491 
	C338.856018,372.093536 340.522156,363.207947 340.719788,355.264679 
	C341.432373,326.625031 341.490021,297.946106 340.861725,269.302490 
	C340.237213,240.831757 343.189270,212.317032 339.308197,183.845428 
	C338.527100,178.115265 336.041687,174.081055 332.909821,170.286026 
	C327.392792,163.600754 318.816864,161.405563 311.043152,161.281494 
	C272.398834,160.664703 233.731140,160.502747 195.087479,161.139771 
	C156.619949,161.773880 118.064079,158.281769 79.706657,163.188004 
	C75.109917,163.775955 70.388618,166.299469 66.518173,169.044220 
	C58.711842,174.580109 57.296520,183.804688 57.225803,192.158676 
	C56.780170,244.804520 56.937298,297.456177 57.088829,350.105377 
	C57.105560,355.918549 58.312294,361.732880 59.075039,367.532501 
	C59.154167,368.134186 60.037762,368.595490 60.436039,369.196228 
	C61.659161,371.041046 62.827797,372.921997 64.256958,375.164490 
	C65.461159,375.164490 67.091164,375.164490 67.836998,375.164490 
	C69.383507,377.467682 70.181000,380.142212 71.740639,380.705109 
	C76.852547,382.550110 82.222725,384.722046 87.527153,384.812988 
	C112.178596,385.235535 136.841309,385.000000 162.500000,385.000031 
z"/>
<path fill="#EBEBEB" opacity="1.000000" stroke="none" 
	d="
M162.000000,385.000000 
	C136.841309,385.000000 112.178596,385.235535 87.527153,384.812988 
	C82.222725,384.722046 76.852547,382.550110 71.740639,380.705109 
	C70.181000,380.142212 69.383507,377.467682 67.836998,375.164490 
	C67.091164,375.164490 65.461159,375.164490 64.256958,375.164490 
	C62.827797,372.921997 61.659161,371.041046 60.436039,369.196228 
	C60.037762,368.595490 59.154167,368.134186 59.075039,367.532501 
	C58.312294,361.732880 57.105560,355.918549 57.088829,350.105377 
	C56.937298,297.456177 56.780170,244.804520 57.225803,192.158676 
	C57.296520,183.804688 58.711842,174.580109 66.518173,169.044220 
	C70.388618,166.299469 75.109917,163.775955 79.706657,163.188004 
	C118.064079,158.281769 156.619949,161.773880 195.087479,161.139771 
	C233.731140,160.502747 272.398834,160.664703 311.043152,161.281494 
	C318.816864,161.405563 327.392792,163.600754 332.909821,170.286026 
	C336.041687,174.081055 338.527100,178.115265 339.308197,183.845428 
	C343.189270,212.317032 340.237213,240.831757 340.861725,269.302490 
	C341.490021,297.946106 341.432373,326.625031 340.719788,355.264679 
	C340.522156,363.207947 338.856018,372.093536 331.213104,377.272491 
	C327.511017,379.781067 323.191437,382.049988 318.860352,382.848541 
	C293.042511,387.608612 266.942444,384.278961 240.970734,384.869202 
	C214.826340,385.463379 188.657898,385.000031 162.000000,385.000000 
z"/>
</svg>