<?xml version="1.0" standalone="no"?>
<!DOCTYPE svg PUBLIC "-//W3C//DTD SVG 20010904//EN"
 "http://www.w3.org/TR/2001/REC-SVG-20010904/DTD/svg10.dtd">
<svg version="1.0" xmlns="http://www.w3.org/2000/svg"
 width="400.000000pt" height="452.000000pt" viewBox="0 0 400.000000 452.000000"
 preserveAspectRatio="xMidYMid meet">

<g transform="translate(0.000000,452.000000) scale(0.100000,-0.100000)"
fill="#000000" stroke="none">
<path d="M0 2260 l0 -2260 2000 0 2000 0 0 2260 0 2260 -2000 0 -2000 0 0
-2260z m3920 1700 l0 -480 -1930 0 -1930 0 0 480 0 480 1930 0 1930 0 0 -480z
m0 -2220 l0 -1660 -1930 0 -1930 0 0 1660 0 1660 1930 0 1930 0 0 -1660z"/>
<path d="M533 3045 c-18 -19 -33 -41 -33 -50 0 -8 -4 -15 -10 -15 -5 0 -10
-13 -10 -30 0 -16 -4 -30 -10 -30 -5 0 -10 -13 -10 -30 0 -16 -4 -30 -10 -30
-5 0 -10 -18 -10 -40 0 -22 -4 -40 -10 -40 -5 0 -10 -22 -10 -50 0 -27 -4 -50
-10 -50 -6 0 -10 -27 -10 -60 0 -33 -4 -60 -10 -60 -6 0 -10 -40 -10 -100 0
-60 -4 -100 -10 -100 -7 0 -10 -170 -10 -490 0 -320 3 -490 10 -490 6 0 10
-40 10 -100 0 -60 4 -100 10 -100 6 0 10 -27 10 -60 0 -33 4 -60 10 -60 6 0
10 -22 10 -50 0 -27 5 -50 10 -50 6 0 10 -18 10 -40 0 -22 5 -40 10 -40 6 0
10 -13 10 -30 0 -16 5 -30 10 -30 6 0 10 -13 10 -30 0 -16 5 -30 10 -30 6 0
10 -7 10 -15 0 -9 16 -31 35 -50 30 -31 41 -35 85 -35 44 0 55 4 85 35 19 19
35 41 35 50 0 8 5 15 10 15 6 0 10 14 10 30 0 17 5 30 10 30 6 0 10 14 10 30
0 17 5 30 10 30 6 0 10 18 10 40 0 22 5 40 10 40 6 0 10 23 10 50 0 28 5 50
10 50 6 0 10 27 10 60 0 33 4 60 10 60 6 0 10 40 10 100 0 60 4 100 10 100 6
0 10 37 10 90 0 53 4 90 10 90 6 0 10 -9 10 -20 0 -11 5 -20 10 -20 6 0 10
-13 10 -30 0 -16 5 -30 10 -30 6 0 10 -8 10 -18 0 -10 9 -24 20 -32 11 -8 20
-22 20 -32 0 -10 5 -18 10 -18 6 0 10 -7 10 -16 0 -8 18 -33 40 -54 22 -21 40
-43 40 -49 0 -16 187 -201 203 -201 7 0 19 -9 27 -20 8 -11 21 -20 30 -20 9 0
22 -9 30 -20 8 -11 22 -20 32 -20 10 0 18 -4 18 -10 0 -5 9 -10 20 -10 11 0
20 -4 20 -10 0 -5 9 -10 20 -10 11 0 20 -4 20 -10 0 -5 9 -10 20 -10 11 0 20
-4 20 -10 0 -5 14 -10 30 -10 17 0 30 -4 30 -10 0 -5 14 -10 30 -10 17 0 30
-4 30 -10 0 -5 18 -10 40 -10 22 0 40 -4 40 -10 0 -6 83 -10 230 -10 147 0
230 4 230 10 0 6 18 10 40 10 22 0 40 5 40 10 0 6 14 10 30 10 17 0 30 5 30
10 0 6 14 10 30 10 17 0 30 5 30 10 0 6 9 10 20 10 11 0 20 5 20 10 0 6 9 10
20 10 11 0 20 5 20 10 0 6 9 10 20 10 11 0 20 5 20 10 0 6 8 10 18 10 10 0 24
9 32 20 8 11 21 20 30 20 9 0 22 9 30 20 8 11 20 20 27 20 16 0 203 185 203
201 0 6 14 24 30 39 17 15 30 35 30 44 0 9 5 16 10 16 6 0 10 9 10 20 0 11 5
20 10 20 6 0 10 9 10 20 0 11 5 20 10 20 6 0 10 9 10 20 0 11 5 20 10 20 6 0
10 9 10 20 0 11 5 20 10 20 6 0 10 14 10 30 0 17 5 30 10 30 6 0 10 14 10 30
0 17 5 30 10 30 6 0 10 18 10 40 0 22 5 40 10 40 6 0 10 80 10 220 0 140 -4
220 -10 220 -5 0 -10 18 -10 40 0 22 -4 40 -10 40 -5 0 -10 14 -10 30 0 17 -4
30 -10 30 -5 0 -10 14 -10 30 0 17 -4 30 -10 30 -5 0 -10 9 -10 20 0 11 -4 20
-10 20 -5 0 -10 9 -10 20 0 11 -4 20 -10 20 -5 0 -10 9 -10 20 0 11 -4 20 -10
20 -5 0 -10 9 -10 20 0 11 -4 20 -10 20 -5 0 -10 7 -10 16 0 9 -13 29 -30 44
-16 15 -30 33 -30 39 0 16 -187 201 -203 201 -7 0 -19 9 -27 20 -8 11 -21 20
-30 20 -9 0 -22 9 -30 20 -8 11 -22 20 -32 20 -10 0 -18 5 -18 10 0 6 -9 10
-20 10 -11 0 -20 5 -20 10 0 6 -9 10 -20 10 -11 0 -20 5 -20 10 0 6 -9 10 -20
10 -11 0 -20 5 -20 10 0 6 -13 10 -30 10 -16 0 -30 5 -30 10 0 6 -13 10 -30
10 -16 0 -30 5 -30 10 0 6 -18 10 -40 10 -22 0 -40 5 -40 10 0 6 -83 10 -230
10 -147 0 -230 -4 -230 -10 0 -5 -18 -10 -40 -10 -22 0 -40 -4 -40 -10 0 -5
-13 -10 -30 -10 -16 0 -30 -4 -30 -10 0 -5 -13 -10 -30 -10 -16 0 -30 -4 -30
-10 0 -5 -9 -10 -20 -10 -11 0 -20 -4 -20 -10 0 -5 -9 -10 -20 -10 -11 0 -20
-4 -20 -10 0 -5 -9 -10 -20 -10 -11 0 -20 -4 -20 -10 0 -5 -8 -10 -18 -10 -10
0 -24 -9 -32 -20 -8 -11 -21 -20 -30 -20 -9 0 -22 -9 -30 -20 -8 -11 -21 -20
-28 -20 -8 0 -27 -13 -42 -30 -15 -16 -33 -30 -40 -30 -7 0 -25 -13 -40 -30
-15 -16 -33 -30 -39 -30 -16 0 -121 -107 -121 -123 0 -7 -9 -19 -20 -27 -11
-8 -20 -26 -20 -40 0 -14 -9 -32 -20 -40 -17 -12 -20 -26 -20 -82 0 -39 -4
-68 -10 -68 -5 0 -10 -9 -10 -20 0 -11 -4 -20 -10 -20 -5 0 -10 23 -10 50 0
28 -4 50 -10 50 -6 0 -10 40 -10 100 0 60 -4 100 -10 100 -6 0 -10 27 -10 60
0 33 -4 60 -10 60 -5 0 -10 23 -10 50 0 28 -4 50 -10 50 -5 0 -10 18 -10 40 0
22 -4 40 -10 40 -5 0 -10 14 -10 30 0 17 -4 30 -10 30 -5 0 -10 14 -10 30 0
17 -4 30 -10 30 -5 0 -10 7 -10 15 0 9 -16 31 -35 50 -31 31 -40 35 -87 34
-47 0 -57 -4 -85 -34z m107 -85 c0 -11 5 -20 10 -20 6 0 10 -9 10 -20 0 -11 5
-20 10 -20 6 0 10 -13 10 -30 0 -16 5 -30 10 -30 6 0 10 -18 10 -40 0 -22 5
-40 10 -40 6 0 10 -22 10 -50 0 -27 5 -50 10 -50 6 0 10 -30 10 -70 0 -40 4
-70 10 -70 6 0 10 -37 10 -90 0 -53 4 -90 10 -90 7 0 10 -163 10 -470 0 -307
-3 -470 -10 -470 -6 0 -10 -37 -10 -90 0 -53 -4 -90 -10 -90 -6 0 -10 -30 -10
-70 0 -40 -4 -70 -10 -70 -5 0 -10 -22 -10 -50 0 -27 -4 -50 -10 -50 -5 0 -10
-18 -10 -40 0 -22 -4 -40 -10 -40 -5 0 -10 -13 -10 -30 0 -16 -4 -30 -10 -30
-5 0 -10 -9 -10 -20 0 -11 -4 -20 -10 -20 -5 0 -10 -9 -10 -20 0 -13 -7 -20
-20 -20 -13 0 -20 7 -20 20 0 11 -4 20 -10 20 -5 0 -10 9 -10 20 0 11 -4 20
-10 20 -5 0 -10 14 -10 30 0 17 -4 30 -10 30 -5 0 -10 18 -10 40 0 22 -4 40
-10 40 -5 0 -10 23 -10 50 0 28 -4 50 -10 50 -6 0 -10 30 -10 70 0 40 -4 70
-10 70 -6 0 -10 37 -10 90 0 53 -4 90 -10 90 -7 0 -10 163 -10 470 0 307 3
470 10 470 6 0 10 37 10 90 0 53 4 90 10 90 6 0 10 30 10 70 0 40 4 70 10 70
6 0 10 23 10 50 0 28 5 50 10 50 6 0 10 18 10 40 0 22 5 40 10 40 6 0 10 14
10 30 0 17 5 30 10 30 6 0 10 9 10 20 0 11 5 20 10 20 6 0 10 9 10 20 0 13 7
20 20 20 13 0 20 -7 20 -20z"/>
</g>
</svg>
