<svg version="1.1" id="Layer_1" xmlns="http://www.w3.org/2000/svg" xmlns:xlink="http://www.w3.org/1999/xlink" x="0px" y="0px"
	 width="100%" viewBox="0 0 400 452" enable-background="new 0 0 400 452" xml:space="preserve">
<path fill="#000000" opacity="1.000000" stroke="none" 
	d="
M217.000000,453.000000 
	C144.666672,453.000000 72.833351,453.000000 1.000019,453.000000 
	C1.000013,302.333374 1.000013,151.666718 1.000006,1.000060 
	C134.333298,1.000040 267.666595,1.000040 400.999908,1.000020 
	C400.999939,151.666611 400.999939,302.333221 400.999969,452.999908 
	C339.833344,453.000000 278.666656,453.000000 217.000000,453.000000 
M393.000061,292.500000 
	C393.000061,232.739517 393.000061,172.979019 393.000061,113.286285 
	C264.024536,113.286285 135.622452,113.286285 7.286508,113.286285 
	C7.286508,223.975494 7.286508,334.378021 7.286508,444.713684 
	C135.975586,444.713684 264.377686,444.713684 393.000092,444.713684 
	C393.000092,394.118347 393.000092,343.809174 393.000061,292.500000 
M137.500000,9.000076 
	C94.072708,9.000076 50.645416,9.000076 7.289146,9.000076 
	C7.289146,41.311890 7.289146,73.049568 7.289146,104.713539 
	C135.979218,104.713539 264.379669,104.713539 392.710754,104.713539 
	C392.710754,72.688400 392.710754,40.950710 392.710754,9.000082 
	C307.781067,9.000082 223.140533,9.000082 137.500000,9.000076 
z"/>
<path fill="#FFFFFF" opacity="1.000000" stroke="none" 
	d="
M393.000061,293.000000 
	C393.000092,343.809174 393.000092,394.118347 393.000092,444.713684 
	C264.377686,444.713684 135.975586,444.713684 7.286508,444.713684 
	C7.286508,334.378021 7.286508,223.975494 7.286508,113.286285 
	C135.622452,113.286285 264.024536,113.286285 393.000061,113.286285 
	C393.000061,172.979019 393.000061,232.739517 393.000061,293.000000 
M142.647186,195.009140 
	C135.411270,201.399750 128.197159,207.815353 120.924454,214.163803 
	C119.047699,215.802032 115.865524,216.857391 115.214096,218.821091 
	C112.974014,225.573669 104.385239,229.583374 106.776878,238.273117 
	C106.822014,238.437119 105.909248,238.736267 105.750656,239.104645 
	C104.130692,242.867676 102.362793,246.587311 101.065971,250.462875 
	C99.986473,253.688980 99.551437,257.125183 98.704414,260.435913 
	C97.532951,265.014740 96.201668,269.552795 95.045593,274.135284 
	C94.862267,274.861969 95.165207,275.749542 95.371681,276.528748 
	C95.874184,278.425171 96.885880,280.292084 96.927658,282.187714 
	C97.159744,292.716187 95.996552,303.402649 101.014473,313.293854 
	C102.309738,315.847046 103.662247,318.371185 104.988831,320.908508 
	C108.399780,327.432434 111.268700,334.328949 115.408264,340.352142 
	C118.277519,344.526917 121.762390,348.385681 126.317909,351.522003 
	C131.985672,355.424164 136.157562,361.455811 141.186386,366.351135 
	C143.121506,368.234863 145.971573,369.203735 147.820938,371.145477 
	C152.293671,375.841553 158.942413,375.163269 164.299728,378.448456 
	C172.037704,383.193481 181.545044,385.345428 191.184860,385.057434 
	C200.174744,384.788910 209.186401,385.214691 218.173462,384.902649 
	C222.208481,384.762573 226.281494,383.841125 230.198441,382.767670 
	C233.358307,381.901611 236.356918,380.374237 239.338943,378.955078 
	C241.783051,377.791870 243.959915,375.689636 246.495163,375.166687 
	C253.897964,373.639709 258.770386,368.047821 264.741547,364.311707 
	C268.468719,361.979706 271.285126,358.142029 274.375702,354.853546 
	C280.038818,348.827759 286.004089,343.011505 289.460480,335.285217 
	C292.106628,329.370178 294.985229,323.536804 297.230225,317.470856 
	C299.493927,311.354309 302.194031,305.091370 302.752808,298.721527 
	C303.666626,288.304138 303.013763,277.748077 302.982361,267.250610 
	C302.978485,265.944244 302.901367,264.594666 302.571259,263.340637 
	C301.450287,259.082336 300.093781,254.884415 299.032684,250.612411 
	C298.130035,246.978287 298.250793,242.904099 296.633362,239.666840 
	C290.869904,228.131516 284.709320,216.789337 274.993317,207.874649 
	C270.518585,203.768967 266.740204,198.784241 261.880646,195.250854 
	C256.720367,191.498810 250.689255,188.924332 244.973450,185.960938 
	C235.458191,181.027695 225.602051,177.143021 214.669235,177.012756 
	C208.671494,176.941299 202.656067,177.281494 196.677063,176.939133 
	C185.567032,176.302933 175.104553,178.549255 164.987839,182.975159 
	C161.100845,184.675644 156.887070,185.727936 153.202377,187.763687 
	C149.684082,189.707504 146.660126,192.546051 142.647186,195.009140 
z"/>
<path fill="#FFFFFF" opacity="1.000000" stroke="none" 
	d="
M138.000000,9.000079 
	C223.140533,9.000082 307.781067,9.000082 392.710754,9.000082 
	C392.710754,40.950710 392.710754,72.688400 392.710754,104.713539 
	C264.379669,104.713539 135.979218,104.713539 7.289146,104.713539 
	C7.289146,73.049568 7.289146,41.311890 7.289146,9.000076 
	C50.645416,9.000076 94.072708,9.000076 138.000000,9.000079 
z"/>
<path fill="#EA4025" opacity="1.000000" stroke="none" 
	d="
M143.033020,195.000214 
	C146.660126,192.546051 149.684082,189.707504 153.202377,187.763687 
	C156.887070,185.727936 161.100845,184.675644 164.987839,182.975159 
	C175.104553,178.549255 185.567032,176.302933 196.677063,176.939133 
	C202.656067,177.281494 208.671494,176.941299 214.669235,177.012756 
	C225.602051,177.143021 235.458191,181.027695 244.973450,185.960938 
	C250.689255,188.924332 256.720367,191.498810 261.880646,195.250854 
	C266.740204,198.784241 270.518585,203.768967 274.993317,207.874649 
	C284.709320,216.789337 290.869904,228.131516 296.633362,239.666840 
	C298.250793,242.904099 298.130035,246.978287 299.032684,250.612411 
	C300.093781,254.884415 301.450287,259.082336 302.571259,263.340637 
	C302.901367,264.594666 302.978485,265.944244 302.982361,267.250610 
	C303.013763,277.748077 303.666626,288.304138 302.752808,298.721527 
	C302.194031,305.091370 299.493927,311.354309 297.230225,317.470856 
	C294.985229,323.536804 292.106628,329.370178 289.460480,335.285217 
	C286.004089,343.011505 280.038818,348.827759 274.375702,354.853546 
	C271.285126,358.142029 268.468719,361.979706 264.741547,364.311707 
	C258.770386,368.047821 253.897964,373.639709 246.495163,375.166687 
	C243.959915,375.689636 241.783051,377.791870 239.338943,378.955078 
	C236.356918,380.374237 233.358307,381.901611 230.198441,382.767670 
	C226.281494,383.841125 222.208481,384.762573 218.173462,384.902649 
	C209.186401,385.214691 200.174744,384.788910 191.184860,385.057434 
	C181.545044,385.345428 172.037704,383.193481 164.299728,378.448456 
	C158.942413,375.163269 152.293671,375.841553 147.820938,371.145477 
	C145.971573,369.203735 143.121506,368.234863 141.186386,366.351135 
	C136.157562,361.455811 131.985672,355.424164 126.317909,351.522003 
	C121.762390,348.385681 118.277519,344.526917 115.408264,340.352142 
	C111.268700,334.328949 108.399780,327.432434 104.988831,320.908508 
	C103.662247,318.371185 102.309738,315.847046 101.014473,313.293854 
	C95.996552,303.402649 97.159744,292.716187 96.927658,282.187714 
	C96.885880,280.292084 95.874184,278.425171 95.371681,276.528748 
	C95.165207,275.749542 94.862267,274.861969 95.045593,274.135284 
	C96.201668,269.552795 97.532951,265.014740 98.704414,260.435913 
	C99.551437,257.125183 99.986473,253.688980 101.065971,250.462875 
	C102.362793,246.587311 104.130692,242.867676 105.750656,239.104645 
	C105.909248,238.736267 106.822014,238.437119 106.776878,238.273117 
	C104.385239,229.583374 112.974014,225.573669 115.214096,218.821091 
	C115.865524,216.857391 119.047699,215.802032 120.924454,214.163803 
	C128.197159,207.815353 135.411270,201.399750 143.033020,195.000214 
M256.804993,218.709122 
	C257.879456,217.778442 258.953949,216.847763 260.308929,215.674133 
	C259.543518,215.068222 258.965332,214.563568 258.341156,214.124222 
	C255.055618,211.811447 251.683624,209.612808 248.497833,207.170776 
	C246.972046,206.001221 246.038666,203.889069 244.403137,203.067474 
	C240.900452,201.307922 236.852325,200.557846 233.501709,198.587921 
	C226.724213,194.603195 219.500565,192.992142 211.777481,192.998520 
	C203.788635,193.005127 195.799805,192.997955 187.810959,193.002029 
	C186.646393,193.002625 185.374771,192.729370 184.334457,193.097076 
	C177.086227,195.658951 169.679855,197.913239 162.732239,201.143723 
	C156.626801,203.982635 150.736542,207.540863 145.341751,211.571701 
	C140.909912,214.883026 137.318878,219.329147 133.406647,223.322708 
	C131.242081,225.532288 128.758743,227.583435 127.164673,230.166168 
	C123.787476,235.637970 120.307510,241.177750 117.960472,247.120453 
	C115.061203,254.461426 111.885353,262.135742 111.304115,269.852448 
	C110.270279,283.578003 109.453522,297.747040 115.242546,310.769318 
	C117.134087,315.024292 115.485313,321.834076 122.452682,323.274536 
	C123.057068,329.091339 128.697784,331.459259 131.025833,336.565308 
	C131.345825,337.362701 131.665817,338.160095 131.985809,338.957489 
	C132.340530,338.340332 132.695267,337.723145 133.829712,337.014954 
	C134.913544,336.578888 136.245071,336.409363 137.044067,335.666840 
	C149.443161,324.144348 161.765350,312.539246 174.129303,300.978851 
	C175.666306,299.541779 177.340195,298.251068 179.411163,297.473389 
	C185.854462,298.044525 186.858704,297.033875 186.011902,290.145050 
	C186.837845,289.048492 187.527405,287.807678 188.510971,286.877869 
	C197.678482,278.211456 206.996719,269.702179 216.067993,260.936951 
	C223.221710,254.024628 230.120148,246.846313 237.073410,239.728912 
	C241.806091,234.884521 246.437637,229.941376 251.837921,224.986313 
	C253.263611,223.004791 254.689301,221.023254 256.804993,218.709122 
M196.904114,294.402039 
	C193.839569,296.631165 190.455231,298.531830 187.767914,301.148346 
	C178.064362,310.596100 168.774094,320.472687 158.963058,329.803864 
	C153.997528,334.526520 150.409195,340.772278 143.483841,343.570282 
	C142.011063,344.165344 140.566147,349.518585 141.367371,350.269592 
	C145.638855,354.273254 150.399963,357.891815 155.432602,360.907867 
	C160.549042,363.974091 166.052429,366.507751 171.620193,368.673523 
	C176.450089,370.552277 181.636337,372.855499 186.613403,372.740234 
	C197.451401,372.489197 208.241302,374.149323 219.262939,371.454681 
	C225.909714,369.829620 231.998260,367.350769 238.267303,365.045074 
	C248.960281,361.112213 258.144989,354.761719 266.233063,346.872986 
	C272.133667,341.117767 277.769409,335.047363 281.301178,327.436249 
	C283.455109,322.794434 285.588623,318.123566 287.358368,313.328094 
	C289.448547,307.664215 292.442749,301.921692 292.754333,296.090820 
	C293.697021,278.451202 294.232086,260.647430 284.969818,244.447830 
	C280.637054,236.869858 276.977112,228.819885 270.489166,223.533371 
	C256.814331,236.149002 243.160400,248.441498 229.862076,261.107361 
	C218.718903,271.720612 207.990906,282.769745 196.904114,294.402039 
M260.029327,215.501968 
	C260.232788,215.569595 260.436249,215.637222 260.639709,215.704849 
	C260.575439,215.513718 260.511169,215.322601 260.029327,215.501968 
z"/>
<path fill="#1432F5" opacity="1.000000" stroke="none" 
	d="
M196.991608,294.013977 
	C207.990906,282.769745 218.718903,271.720612 229.862076,261.107361 
	C243.160400,248.441498 256.814331,236.149002 270.489166,223.533371 
	C276.977112,228.819885 280.637054,236.869858 284.969818,244.447830 
	C294.232086,260.647430 293.697021,278.451202 292.754333,296.090820 
	C292.442749,301.921692 289.448547,307.664215 287.358368,313.328094 
	C285.588623,318.123566 283.455109,322.794434 281.301178,327.436249 
	C277.769409,335.047363 272.133667,341.117767 266.233063,346.872986 
	C258.144989,354.761719 248.960281,361.112213 238.267303,365.045074 
	C231.998260,367.350769 225.909714,369.829620 219.262939,371.454681 
	C208.241302,374.149323 197.451401,372.489197 186.613403,372.740234 
	C181.636337,372.855499 176.450089,370.552277 171.620193,368.673523 
	C166.052429,366.507751 160.549042,363.974091 155.432602,360.907867 
	C150.399963,357.891815 145.638855,354.273254 141.367371,350.269592 
	C140.566147,349.518585 142.011063,344.165344 143.483841,343.570282 
	C150.409195,340.772278 153.997528,334.526520 158.963058,329.803864 
	C168.774094,320.472687 178.064362,310.596100 187.767914,301.148346 
	C190.455231,298.531830 193.839569,296.631165 196.991608,294.013977 
z"/>
<path fill="#1432F5" opacity="1.000000" stroke="none" 
	d="
M251.114426,225.042419 
	C246.437637,229.941376 241.806091,234.884521 237.073410,239.728912 
	C230.120148,246.846313 223.221710,254.024628 216.067993,260.936951 
	C206.996719,269.702179 197.678482,278.211456 188.510971,286.877869 
	C187.527405,287.807678 186.837845,289.048492 185.602722,290.565765 
	C183.112564,292.955170 181.031616,294.923859 178.950653,296.892548 
	C177.340195,298.251068 175.666306,299.541779 174.129303,300.978851 
	C161.765350,312.539246 149.443161,324.144348 137.044067,335.666840 
	C136.245071,336.409363 134.913544,336.578888 133.293030,336.808502 
	C132.226440,336.401154 131.696518,336.200226 131.166595,335.999329 
	C128.697784,331.459259 123.057068,329.091339 122.452682,323.274536 
	C115.485313,321.834076 117.134087,315.024292 115.242546,310.769318 
	C109.453522,297.747040 110.270279,283.578003 111.304115,269.852448 
	C111.885353,262.135742 115.061203,254.461426 117.960472,247.120453 
	C120.307510,241.177750 123.787476,235.637970 127.164673,230.166168 
	C128.758743,227.583435 131.242081,225.532288 133.406647,223.322708 
	C137.318878,219.329147 140.909912,214.883026 145.341751,211.571701 
	C150.736542,207.540863 156.626801,203.982635 162.732239,201.143723 
	C169.679855,197.913239 177.086227,195.658951 184.334457,193.097076 
	C185.374771,192.729370 186.646393,193.002625 187.810959,193.002029 
	C195.799805,192.997955 203.788635,193.005127 211.777481,192.998520 
	C219.500565,192.992142 226.724213,194.603195 233.501709,198.587921 
	C236.852325,200.557846 240.900452,201.307922 244.403137,203.067474 
	C246.038666,203.889069 246.972046,206.001221 248.497833,207.170776 
	C251.683624,209.612808 255.055618,211.811447 258.341156,214.124222 
	C258.965332,214.563568 259.543518,215.068222 260.308929,215.674133 
	C258.953949,216.847763 257.879456,217.778442 256.041138,218.863678 
	C250.981339,218.221634 248.914474,220.739807 247.033600,224.550659 
	C248.680161,224.749069 249.897293,224.895737 251.114426,225.042419 
z"/>
<path fill="#1432F5" opacity="1.000000" stroke="none" 
	d="
M251.476166,225.014374 
	C249.897293,224.895737 248.680161,224.749069 247.033600,224.550659 
	C248.914474,220.739807 250.981339,218.221634 255.696136,219.029968 
	C254.689301,221.023254 253.263611,223.004791 251.476166,225.014374 
z"/>
<path fill="#EA4025" opacity="1.000000" stroke="none" 
	d="
M179.180908,297.182983 
	C181.031616,294.923859 183.112564,292.955170 185.575806,290.935699 
	C186.858704,297.033875 185.854462,298.044525 179.180908,297.182983 
z"/>
<path fill="#1432F5" opacity="1.000000" stroke="none" 
	d="
M131.096222,336.282318 
	C131.696518,336.200226 132.226440,336.401154 132.903168,336.854004 
	C132.695267,337.723145 132.340530,338.340332 131.985809,338.957489 
	C131.665817,338.160095 131.345825,337.362701 131.096222,336.282318 
z"/>
<path fill="#1432F5" opacity="1.000000" stroke="none" 
	d="
M260.238098,215.316711 
	C260.511169,215.322601 260.575439,215.513718 260.639709,215.704849 
	C260.436249,215.637222 260.232788,215.569595 260.238098,215.316711 
z"/>
</svg>