<?xml version="1.0" standalone="no"?>
<!DOCTYPE svg PUBLIC "-//W3C//DTD SVG 20010904//EN"
 "http://www.w3.org/TR/2001/REC-SVG-20010904/DTD/svg10.dtd">
<svg version="1.0" xmlns="http://www.w3.org/2000/svg"
 width="400.000000pt" height="452.000000pt" viewBox="0 0 400.000000 452.000000"
 preserveAspectRatio="xMidYMid meet">

<g transform="translate(0.000000,452.000000) scale(0.100000,-0.100000)"
fill="#000000" stroke="none">
<path d="M0 2260 l0 -2260 2000 0 2000 0 0 2260 0 2260 -2000 0 -2000 0 0
-2260z m3940 1700 l0 -480 -1930 0 -1930 0 0 480 0 480 1930 0 1930 0 0 -480z
m0 -2220 l0 -1660 -1930 0 -1930 0 0 1660 0 1660 1930 0 1930 0 0 -1660z"/>
<path d="M1760 2850 c0 -5 -22 -10 -50 -10 -27 0 -50 -4 -50 -10 0 -5 -13 -10
-30 -10 -16 0 -30 -4 -30 -10 0 -5 -13 -10 -30 -10 -16 0 -30 -4 -30 -10 0 -5
-9 -10 -20 -10 -11 0 -20 -4 -20 -10 0 -5 -9 -10 -20 -10 -11 0 -20 -4 -20
-10 0 -5 -9 -10 -20 -10 -11 0 -20 -4 -20 -10 0 -5 -9 -10 -20 -10 -11 0 -20
-4 -20 -10 0 -5 -8 -10 -18 -10 -10 0 -24 -9 -32 -20 -8 -11 -20 -20 -28 -20
-7 0 -35 -22 -62 -50 -27 -27 -54 -50 -60 -50 -15 0 -40 -25 -40 -40 0 -6 -22
-33 -50 -60 -27 -27 -50 -55 -50 -62 0 -8 -9 -20 -20 -28 -11 -8 -20 -22 -20
-32 0 -10 -4 -18 -10 -18 -5 0 -10 -9 -10 -20 0 -11 -4 -20 -10 -20 -5 0 -10
-9 -10 -20 0 -11 -4 -20 -10 -20 -5 0 -10 -9 -10 -20 0 -11 -4 -20 -10 -20 -5
0 -10 -13 -10 -30 0 -16 -4 -30 -10 -30 -5 0 -10 -13 -10 -30 0 -16 -4 -30
-10 -30 -5 0 -10 -18 -10 -40 0 -22 -4 -40 -10 -40 -6 0 -10 -33 -10 -80 0
-47 -4 -80 -10 -80 -5 0 -10 -18 -10 -40 0 -22 5 -40 10 -40 6 0 10 -37 10
-90 0 -53 4 -90 10 -90 6 0 10 -18 10 -40 0 -22 5 -40 10 -40 6 0 10 -13 10
-30 0 -16 5 -30 10 -30 6 0 10 -9 10 -20 0 -11 5 -20 10 -20 6 0 10 -13 10
-30 0 -16 5 -30 10 -30 6 0 10 -8 10 -18 0 -10 9 -24 20 -32 11 -8 20 -22 20
-32 0 -10 5 -18 10 -18 6 0 10 -7 10 -16 0 -8 18 -33 40 -54 22 -21 40 -43 40
-49 0 -15 86 -101 101 -101 6 0 28 -18 49 -40 21 -22 45 -40 52 -40 7 0 20 -9
28 -20 8 -11 22 -20 32 -20 10 0 18 -4 18 -10 0 -5 8 -10 18 -10 10 0 24 -9
32 -20 8 -12 26 -20 42 -20 15 0 28 -4 28 -10 0 -5 9 -10 20 -10 11 0 20 -4
20 -10 0 -5 14 -10 30 -10 17 0 30 -4 30 -10 0 -5 14 -10 30 -10 17 0 30 -4
30 -10 0 -5 23 -10 50 -10 28 0 50 -4 50 -10 0 -6 80 -10 220 -10 140 0 220 4
220 10 0 6 23 10 50 10 28 0 50 5 50 10 0 6 14 10 30 10 17 0 30 5 30 10 0 6
14 10 30 10 17 0 30 5 30 10 0 6 9 10 20 10 11 0 20 5 20 10 0 6 13 10 28 10
16 0 34 8 42 20 8 11 22 20 32 20 10 0 18 5 18 10 0 6 8 10 18 10 10 0 24 9
32 20 8 11 21 20 28 20 7 0 31 18 52 40 21 22 43 40 49 40 15 0 101 86 101
101 0 6 18 28 40 49 22 21 40 46 40 54 0 9 5 16 10 16 6 0 10 8 10 18 0 10 9
24 20 32 11 8 20 22 20 32 0 10 5 18 10 18 6 0 10 14 10 30 0 17 5 30 10 30 6
0 10 9 10 20 0 11 5 20 10 20 6 0 10 14 10 30 0 17 5 30 10 30 6 0 10 18 10
40 0 22 5 40 10 40 6 0 10 77 10 210 0 133 -4 210 -10 210 -5 0 -10 18 -10 40
0 22 -4 40 -10 40 -5 0 -10 14 -10 30 0 17 -4 30 -10 30 -5 0 -10 14 -10 30 0
17 -4 30 -10 30 -5 0 -10 9 -10 20 0 11 -4 20 -10 20 -5 0 -10 9 -10 20 0 11
-4 20 -10 20 -5 0 -10 9 -10 20 0 11 -4 20 -10 20 -5 0 -10 8 -10 18 0 10 -9
24 -20 32 -11 8 -20 20 -20 28 0 7 -22 35 -50 62 -27 27 -50 54 -50 60 0 15
-25 40 -40 40 -6 0 -33 23 -60 50 -27 28 -55 50 -62 50 -8 0 -20 9 -28 20 -8
11 -22 20 -32 20 -10 0 -18 5 -18 10 0 6 -9 10 -20 10 -11 0 -20 5 -20 10 0 6
-9 10 -20 10 -11 0 -20 5 -20 10 0 6 -9 10 -20 10 -11 0 -20 5 -20 10 0 6 -9
10 -20 10 -11 0 -20 5 -20 10 0 6 -13 10 -30 10 -16 0 -30 5 -30 10 0 6 -13
10 -30 10 -16 0 -30 5 -30 10 0 6 -22 10 -50 10 -27 0 -50 5 -50 10 0 6 -80
10 -220 10 -140 0 -220 -4 -220 -10z m320 -260 c0 -5 23 -10 50 -10 28 0 50
-4 50 -10 0 -5 13 -10 28 -10 16 0 34 -8 42 -20 8 -11 20 -20 27 -20 16 0 103
-85 103 -101 0 -6 14 -24 30 -39 29 -27 42 -80 20 -80 -5 0 -10 5 -10 10 0 6
-11 10 -25 10 -19 0 -45 20 -95 70 -38 39 -75 70 -82 70 -8 0 -20 9 -28 20 -8
11 -22 20 -32 20 -10 0 -18 5 -18 10 0 6 -7 10 -16 10 -9 0 -29 14 -44 30 -15
17 -35 30 -44 30 -9 0 -16 5 -16 10 0 6 14 10 30 10 17 0 30 -4 30 -10z m-640
-800 c0 -6 40 -10 100 -10 60 0 100 -4 100 -10 0 -5 23 -10 50 -10 28 0 50 -4
50 -10 0 -6 28 -10 65 -10 62 0 68 -2 100 -35 22 -21 35 -44 35 -60 0 -14 5
-25 10 -25 6 0 10 -13 10 -30 0 -16 5 -30 10 -30 6 0 10 -7 10 -15 0 -9 16
-31 35 -50 31 -32 40 -35 90 -35 30 0 55 -4 55 -10 0 -6 33 -10 80 -10 47 0
80 -4 80 -10 0 -6 47 -10 120 -10 73 0 120 -4 120 -10 0 -5 7 -10 16 -10 9 0
26 -10 37 -22 13 -16 21 -19 24 -10 13 34 103 -12 103 -53 0 -8 7 -15 15 -15
22 0 73 -52 57 -58 -7 -2 -12 -10 -12 -18 0 -18 -145 -164 -163 -164 -7 0 -19
-9 -27 -20 -8 -11 -21 -20 -30 -20 -9 0 -22 -9 -30 -20 -8 -11 -22 -20 -32
-20 -10 0 -18 -4 -18 -10 0 -5 -9 -10 -20 -10 -11 0 -20 -4 -20 -10 0 -5 -9
-10 -20 -10 -11 0 -20 -4 -20 -10 0 -5 -9 -10 -20 -10 -11 0 -20 -4 -20 -10 0
-5 -13 -10 -30 -10 -16 0 -30 -4 -30 -10 0 -5 -13 -10 -30 -10 -16 0 -30 -4
-30 -10 0 -5 -18 -10 -40 -10 -22 0 -40 -4 -40 -10 0 -6 -73 -10 -200 -10
-127 0 -200 4 -200 10 0 6 -18 10 -40 10 -22 0 -40 5 -40 10 0 6 -13 10 -30
10 -16 0 -30 5 -30 10 0 6 -13 10 -30 10 -16 0 -30 5 -30 10 0 6 -9 10 -20 10
-11 0 -20 5 -20 10 0 6 -9 10 -20 10 -11 0 -20 5 -20 10 0 6 -9 10 -20 10 -11
0 -20 5 -20 10 0 6 -8 10 -18 10 -10 0 -24 9 -32 20 -8 11 -21 20 -30 20 -9 0
-22 9 -30 20 -8 11 -20 20 -27 20 -16 0 -163 145 -163 161 0 6 -13 24 -30 39
-16 15 -30 35 -30 44 0 9 -4 16 -10 16 -5 0 -10 9 -10 20 0 11 -4 20 -10 20
-5 0 -10 9 -10 20 0 11 -4 20 -10 20 -5 0 -10 9 -10 20 0 11 -4 20 -10 20 -5
0 -10 9 -10 20 0 11 -4 20 -10 20 -5 0 -10 14 -10 30 0 17 -4 30 -10 30 -5 0
-10 18 -10 40 0 22 -4 40 -10 40 -5 0 -10 5 -10 10 0 6 27 10 60 10 33 0 60 4
60 10 0 6 8 10 18 10 10 0 24 9 32 20 12 17 26 20 82 20 39 0 68 4 68 10 0 6
8 10 18 10 9 1 33 19 52 40 24 27 44 39 63 40 15 0 27 -4 27 -10z"/>
</g>
</svg>
